<svg xmlns="http://www.w3.org/2000/svg" version="1.1" xmlns:xlink="http://www.w3.org/1999/xlink" xmlns:svgjs="http://svgjs.dev/svgjs" width="2000" height="522" viewBox="0 0 2000 522"><g transform="matrix(1,0,0,1,0.213333333333253,1.2467833351602167)"><svg viewBox="0 0 375 98" data-background-color="#282634" preserveAspectRatio="xMidYMid meet" height="522" width="2000" xmlns="http://www.w3.org/2000/svg" xmlns:xlink="http://www.w3.org/1999/xlink"><g id="tight-bounds" transform="matrix(1,0,0,1,-0.03976036071776434,-0.23400054931639147)"><svg viewBox="0 0 375.07952880859375 98.46807098388672" height="98.46807098388672" width="375.07952880859375"><g><svg></svg></g><g><svg viewBox="0 0 375.07952880859375 98.46807098388672" height="98.46807098388672" width="375.07952880859375"><g transform="matrix(1,0,0,1,-10.220239639282227,-77.2200698852539)"><path xmlns="http://www.w3.org/2000/svg" d="M10.22 169.98v-92.76h375.08v92.76h-27.92l0-3.132h24.788v-86.496h-368.816v86.496h164.828l0 3.132z" fill="#ff4057" fill-rule="nonzero" stroke="none" stroke-width="1" stroke-linecap="butt" stroke-linejoin="miter" stroke-miterlimit="10" stroke-dasharray="" stroke-dashoffset="0" font-family="none" font-weight="none" font-size="none" text-anchor="none" style="mix-blend-mode: normal" data-fill-palette-color="tertiary"></path><g><path xmlns="http://www.w3.org/2000/svg" d="M194.97 175.688c-1.393 0-2.655-0.311-3.786-0.932-1.133-0.624-2.017-1.479-2.652-2.564-0.638-1.085-0.956-2.304-0.957-3.657v0c0-1.353 0.319-2.572 0.957-3.657 0.635-1.085 1.519-1.94 2.652-2.564 1.131-0.622 2.393-0.932 3.786-0.933v0c1.393 0 2.65 0.308 3.769 0.925 1.117 0.616 1.997 1.47 2.641 2.56 0.643 1.093 0.965 2.316 0.964 3.669v0c0 1.353-0.322 2.575-0.964 3.665-0.643 1.093-1.523 1.948-2.641 2.564-1.12 0.616-2.376 0.924-3.769 0.924zM194.97 174.362c1.112 0 2.117-0.252 3.014-0.756 0.898-0.501 1.601-1.198 2.11-2.089 0.509-0.889 0.764-1.883 0.763-2.982v0c0-1.098-0.255-2.094-0.763-2.986-0.509-0.889-1.212-1.586-2.11-2.09-0.898-0.501-1.902-0.752-3.014-0.752v0c-1.112 0-2.119 0.251-3.022 0.752-0.906 0.504-1.616 1.2-2.13 2.09-0.517 0.892-0.776 1.887-0.776 2.986v0c0 1.098 0.259 2.092 0.776 2.982 0.514 0.892 1.224 1.589 2.13 2.089 0.903 0.504 1.91 0.756 3.022 0.756zM215.325 162.788h-8.158v5.526h7.274v1.286h-7.274v5.968h-1.487v-14.066h9.645zM223.664 175.568v-14.066h5.727c1.487 0 2.8 0.299 3.938 0.896 1.139 0.595 2.023 1.424 2.652 2.488 0.63 1.066 0.944 2.283 0.945 3.649v0c0 1.366-0.315 2.581-0.945 3.645-0.63 1.066-1.514 1.897-2.652 2.491-1.139 0.597-2.451 0.896-3.938 0.897v0zM225.151 174.282h4.159c1.232 0 2.311-0.245 3.235-0.736 0.924-0.488 1.641-1.164 2.15-2.029 0.509-0.863 0.764-1.857 0.764-2.982v0c0-1.125-0.255-2.121-0.764-2.986-0.509-0.863-1.226-1.539-2.15-2.03-0.924-0.488-2.003-0.731-3.235-0.731v0h-4.159zM241.748 174.282h8.46v1.286h-9.947v-14.066h9.646v1.286h-8.159v5.003h7.274v1.266h-7.274zM263.691 161.502h1.507l-6.229 14.066h-1.467l-6.229-14.066h1.607l5.386 12.217zM268.714 174.282h8.46v1.286h-9.946v-14.066h9.645v1.286h-8.159v5.003h7.274v1.266h-7.274zM280.67 175.568v-14.066h1.487v12.78h7.877v1.286zM298.373 175.688c-1.393 0-2.655-0.311-3.786-0.932-1.133-0.624-2.017-1.479-2.652-2.564-0.638-1.085-0.956-2.304-0.956-3.657v0c0-1.353 0.319-2.572 0.956-3.657 0.635-1.085 1.519-1.94 2.652-2.564 1.131-0.622 2.393-0.932 3.786-0.933v0c1.393 0 2.65 0.308 3.77 0.925 1.117 0.616 1.997 1.47 2.64 2.56 0.643 1.093 0.965 2.316 0.965 3.669v0c0 1.353-0.322 2.575-0.965 3.665-0.643 1.093-1.523 1.948-2.64 2.564-1.12 0.616-2.376 0.924-3.77 0.924zM298.373 174.362c1.112 0 2.117-0.252 3.014-0.756 0.898-0.501 1.601-1.198 2.11-2.089 0.509-0.889 0.764-1.883 0.764-2.982v0c0-1.098-0.255-2.094-0.764-2.986-0.509-0.889-1.212-1.586-2.11-2.09-0.898-0.501-1.902-0.752-3.014-0.752v0c-1.112 0-2.119 0.251-3.022 0.752-0.906 0.504-1.616 1.2-2.13 2.09-0.517 0.892-0.776 1.887-0.776 2.986v0c0 1.098 0.259 2.092 0.776 2.982 0.514 0.892 1.224 1.589 2.13 2.089 0.903 0.504 1.91 0.756 3.022 0.756zM314.348 161.502c1.795 0 3.202 0.429 4.219 1.286 1.018 0.857 1.527 2.036 1.528 3.536v0c0 1.5-0.509 2.675-1.528 3.525-1.018 0.852-2.425 1.278-4.219 1.278v0h-3.778v4.441h-1.487v-14.066zM314.308 169.821c1.393 0 2.458-0.304 3.195-0.913 0.737-0.611 1.105-1.472 1.105-2.584v0c0-1.139-0.368-2.013-1.105-2.624-0.737-0.608-1.802-0.912-3.195-0.912v0h-3.738v7.033zM324.797 174.282h8.459v1.286h-9.946v-14.066h9.645v1.286h-8.158v5.003h7.274v1.266h-7.274zM347.985 175.568h-1.628l-3.215-4.522c-0.362 0.04-0.737 0.06-1.125 0.061v0h-3.778v4.461h-1.487v-14.066h5.265c1.795 0 3.202 0.429 4.22 1.286 1.018 0.857 1.527 2.036 1.527 3.536v0c0 1.098-0.277 2.027-0.832 2.785-0.557 0.756-1.352 1.301-2.383 1.636v0zM341.977 169.841c1.393 0 2.458-0.308 3.195-0.925 0.737-0.616 1.105-1.48 1.105-2.592v0c0-1.139-0.368-2.013-1.105-2.624-0.737-0.608-1.802-0.912-3.195-0.912v0h-3.738v7.053z" fill="#dcdcdc" fill-rule="nonzero" stroke="none" stroke-width="1" stroke-linecap="butt" stroke-linejoin="miter" stroke-miterlimit="10" stroke-dasharray="" stroke-dashoffset="0" font-family="none" font-weight="none" font-size="none" text-anchor="none" style="mix-blend-mode: normal" data-fill-palette-color="secondary"></path></g></g><g transform="matrix(1,0,0,1,29.331764404296877,31.871322961230828)"><svg viewBox="0 0 316.416 34.725425061425064" height="34.725425061425064" width="316.416"><g><svg viewBox="0 0 316.416 34.725425061425064" height="34.725425061425064" width="316.416"><g><svg viewBox="0 0 316.416 34.725425061425064" height="34.725425061425064" width="316.416"><g><svg viewBox="0 0 316.416 34.725425061425064" height="34.725425061425064" width="316.416"><g><svg viewBox="0 0 316.416 34.725425061425064" height="34.725425061425064" width="316.416"><g transform="matrix(1,0,0,1,0,0)"><svg width="316.416" viewBox="3.5900001525878906 -35.5 327.8800048828125 35.9900016784668" height="34.725425061425064" data-palette-color="#ff4057"><path d="M38.57-23.24L38.57-20.36Q38.57-18.19 38.04-16.48 37.5-14.77 36.58-13.46 35.67-12.16 34.47-11.23 33.28-10.3 31.97-9.72 30.66-9.13 29.33-8.86 28-8.59 26.83-8.59L26.83-8.59 12.48-8.59 12.48-14.94 26.83-14.94Q28.05-15.04 29.04-15.44 30.03-15.84 30.74-16.53 31.45-17.21 31.84-18.18 32.23-19.14 32.23-20.36L32.23-20.36 32.23-23.24Q32.1-24.44 31.71-25.44 31.32-26.44 30.65-27.15 29.98-27.86 29.03-28.26 28.08-28.66 26.83-28.66L26.83-28.66 12.52-28.66Q11.25-28.66 10.6-28 9.94-27.34 9.94-26.1L9.94-26.1 9.94 0 3.59 0 3.59-26.1Q3.59-28.54 4.48-30.25 5.37-31.96 6.7-33.01 8.03-34.06 9.59-34.53 11.16-35.01 12.48-35.01L12.48-35.01 26.83-35.01Q28.98-35.01 30.69-34.46 32.4-33.91 33.7-33 35.01-32.08 35.93-30.88 36.84-29.69 37.44-28.38 38.04-27.08 38.31-25.74 38.57-24.41 38.57-23.24L38.57-23.24ZM80.73-20.85L80.73-14.16Q80.73-10.96 79.64-8.28 78.54-5.59 76.58-3.64 74.63-1.68 71.96-0.6 69.28 0.49 66.14 0.49L66.14 0.49 57.54 0.49Q54.39 0.49 51.71-0.6 49.02-1.68 47.07-3.64 45.11-5.59 44-8.28 42.89-10.96 42.89-14.16L42.89-14.16 42.89-20.85Q42.89-24.02 44-26.72 45.11-29.42 47.07-31.36 49.02-33.3 51.71-34.4 54.39-35.5 57.54-35.5L57.54-35.5 66.14-35.5Q69.28-35.5 71.96-34.4 74.63-33.3 76.58-31.36 78.54-29.42 79.64-26.72 80.73-24.02 80.73-20.85L80.73-20.85ZM74.39-14.16L74.39-20.85Q74.39-22.73 73.79-24.26 73.19-25.78 72.1-26.87 71.02-27.95 69.49-28.55 67.97-29.15 66.14-29.15L66.14-29.15 57.54-29.15Q55.69-29.15 54.16-28.55 52.63-27.95 51.54-26.87 50.44-25.78 49.84-24.26 49.24-22.73 49.24-20.85L49.24-20.85 49.24-14.16Q49.24-12.28 49.84-10.75 50.44-9.23 51.54-8.14 52.63-7.06 54.16-6.46 55.69-5.86 57.54-5.86L57.54-5.86 66.09-5.86Q67.94-5.86 69.47-6.46 70.99-7.06 72.09-8.14 73.19-9.23 73.79-10.75 74.39-12.28 74.39-14.16L74.39-14.16ZM121.99-27.29L121.99-23.24Q121.99-21.07 121.45-19.36 120.92-17.65 120-16.35 119.09-15.04 117.89-14.11 116.69-13.18 115.39-12.59 114.08-11.99 112.75-11.72 111.42-11.45 110.25-11.45L110.25-11.45 123.51 0 113.69 0 100.46-11.45 95.89-11.45 95.89-17.8 110.25-17.8Q111.45-17.9 112.43-18.3 113.42-18.7 114.14-19.38 114.86-20.07 115.25-21.03 115.64-22 115.64-23.24L115.64-23.24 115.64-27.25Q115.64-27.78 115.51-28.06 115.38-28.34 115.17-28.48 114.96-28.61 114.73-28.64 114.5-28.66 114.3-28.66L114.3-28.66 93.35-28.66 93.35 0 87.01 0 87.01-31.81Q87.01-32.47 87.25-33.06 87.5-33.64 87.92-34.08 88.35-34.52 88.94-34.77 89.52-35.01 90.2-35.01L90.2-35.01 114.3-35.01Q116.43-35.01 117.89-34.24 119.36-33.47 120.27-32.31 121.19-31.15 121.59-29.81 121.99-28.47 121.99-27.29L121.99-27.29ZM159.73-35.01L159.73-28.66 145.74-28.66 145.74 0 139.4 0 139.4-28.66 125.38-28.66 125.38-35.01 159.73-35.01ZM193.35-20.7L193.35-14.31 173.28-14.31 173.28-20.7 193.35-20.7ZM196.18-35.01L196.18-28.66 170.74-28.66 170.74 0 164.39 0 164.39-31.81Q164.39-32.47 164.64-33.06 164.88-33.64 165.31-34.08 165.74-34.52 166.32-34.77 166.91-35.01 167.59-35.01L167.59-35.01 196.18-35.01ZM237.83-20.85L237.83-14.16Q237.83-10.96 236.73-8.28 235.63-5.59 233.68-3.64 231.73-1.68 229.05-0.6 226.38 0.49 223.23 0.49L223.23 0.49 214.64 0.49Q211.49 0.49 208.8-0.6 206.12-1.68 204.16-3.64 202.21-5.59 201.1-8.28 199.99-10.96 199.99-14.16L199.99-14.16 199.99-20.85Q199.99-24.02 201.1-26.72 202.21-29.42 204.16-31.36 206.12-33.3 208.8-34.4 211.49-35.5 214.64-35.5L214.64-35.5 223.23-35.5Q226.38-35.5 229.05-34.4 231.73-33.3 233.68-31.36 235.63-29.42 236.73-26.72 237.83-24.02 237.83-20.85L237.83-20.85ZM231.48-14.16L231.48-20.85Q231.48-22.73 230.88-24.26 230.29-25.78 229.2-26.87 228.11-27.95 226.59-28.55 225.06-29.15 223.23-29.15L223.23-29.15 214.64-29.15Q212.78-29.15 211.25-28.55 209.73-27.95 208.63-26.87 207.53-25.78 206.93-24.26 206.34-22.73 206.34-20.85L206.34-20.85 206.34-14.16Q206.34-12.28 206.93-10.75 207.53-9.23 208.63-8.14 209.73-7.06 211.25-6.46 212.78-5.86 214.64-5.86L214.64-5.86 223.18-5.86Q225.04-5.86 226.56-6.46 228.09-7.06 229.19-8.14 230.29-9.23 230.88-10.75 231.48-12.28 231.48-14.16L231.48-14.16ZM276.25-6.35L276.25 0 247.3 0Q246.62 0 246.03-0.24 245.44-0.49 245.02-0.92 244.59-1.34 244.35-1.93 244.1-2.51 244.1-3.2L244.1-3.2 244.1-35.01 250.45-35.01 250.45-6.35 276.25-6.35ZM287.31-35.01L287.31 0 280.96 0 280.96-35.01 287.31-35.01ZM331.47-20.85L331.47-14.16Q331.47-10.96 330.38-8.28 329.28-5.59 327.32-3.64 325.37-1.68 322.7-0.6 320.02 0.49 316.87 0.49L316.87 0.49 308.28 0.49Q305.13 0.49 302.45-0.6 299.76-1.68 297.81-3.64 295.85-5.59 294.74-8.28 293.63-10.96 293.63-14.16L293.63-14.16 293.63-20.85Q293.63-24.02 294.74-26.72 295.85-29.42 297.81-31.36 299.76-33.3 302.45-34.4 305.13-35.5 308.28-35.5L308.28-35.5 316.87-35.5Q320.02-35.5 322.7-34.4 325.37-33.3 327.32-31.36 329.28-29.42 330.38-26.72 331.47-24.02 331.47-20.85L331.47-20.85ZM325.13-14.16L325.13-20.85Q325.13-22.73 324.53-24.26 323.93-25.78 322.84-26.87 321.76-27.95 320.23-28.55 318.71-29.15 316.87-29.15L316.87-29.15 308.28-29.15Q306.43-29.15 304.9-28.55 303.37-27.95 302.27-26.87 301.18-25.78 300.58-24.26 299.98-22.73 299.98-20.85L299.98-20.85 299.98-14.16Q299.98-12.28 300.58-10.75 301.18-9.23 302.27-8.14 303.37-7.06 304.9-6.46 306.43-5.86 308.28-5.86L308.28-5.86 316.83-5.86Q318.68-5.86 320.21-6.46 321.73-7.06 322.83-8.14 323.93-9.23 324.53-10.75 325.13-12.28 325.13-14.16L325.13-14.16Z" opacity="1" transform="matrix(1,0,0,1,0,0)" fill="#ff4057" class="undefined-text-0" data-fill-palette-color="primary" id="text-0"></path></svg></g></svg></g></svg></g></svg></g></svg></g></svg></g></svg></g><defs></defs></svg><rect width="375.07952880859375" height="98.46807098388672" fill="none" stroke="none" visibility="hidden"></rect></g></svg></g></svg>