<svg xmlns="http://www.w3.org/2000/svg" width="796.498" height="376.348" viewBox="0 0 796.498 376.348">
  <g id="OBJECTS" transform="translate(-233.828 -109.341)">
    <g id="Group_2" data-name="Group 2" transform="translate(629.954 118.444)">
      <g id="Group_1" data-name="Group 1" transform="translate(0 1.974)">
        <g id="Path_1" data-name="Path 1" transform="translate(-638.803 -120.418)" fill="#fff" stroke-miterlimit="10">
          <path d="M 721.9291381835938 211.8568115234375 C 702.5901489257812 193.7294006347656 681.4628295898438 183.8268737792969 666.9736328125 178.6819305419922 C 658.54443359375 175.6888122558594 651.4144287109375 173.9517211914062 646.9174194335938 173.0215454101562 C 644.68505859375 172.5597991943359 642.8707885742188 172.2459716796875 641.5452880859375 172.0399322509766 C 643.0899658203125 167.8838348388672 646.4963989257812 158.7694854736328 650.0875244140625 149.4931488037109 C 652.9323120117188 142.1447143554688 655.3338623046875 136.1359558105469 657.2255249023438 131.6337890625 C 658.3413696289062 128.9779663085938 659.2869262695312 126.8305435180664 660.035888671875 125.2512130737305 C 660.718017578125 123.812873840332 661.130615234375 123.0732421875 661.3573608398438 122.7051010131836 C 662.203369140625 122.5915603637695 663.9058837890625 122.4181137084961 666.4109497070312 122.4181137084961 C 669.9901123046875 122.4181137084961 675.9188232421875 122.7809600830078 683.8375244140625 124.5095443725586 C 692.8054809570312 126.4671783447266 702.4075927734375 129.7345275878906 712.3772583007812 134.2208557128906 C 745.3320922851562 149.0509338378906 754.1532592773438 165.7353515625 755.8855590820312 169.8152465820312 L 721.9291381835938 211.8568115234375 Z" stroke="none"/>
          <path d="M 666.4109497070312 124.4180908203125 C 664.759521484375 124.4180908203125 663.482666015625 124.4963073730469 662.5974731445312 124.578369140625 C 662.001953125 125.7194671630859 660.8634033203125 128.1111297607422 658.8004150390625 133.0504913330078 C 656.9126586914062 137.5702514648438 654.5401000976562 143.5227661132812 651.74853515625 150.7426910400391 C 648.7922973632812 158.3886566162109 645.9827880859375 165.8645172119141 644.265380859375 170.466796875 C 649.2332763671875 171.361083984375 657.5209350585938 173.2030181884766 667.642822265625 176.7971954345703 C 681.919677734375 181.8667755126953 702.56298828125 191.4994964599609 721.7161865234375 208.9374084472656 L 753.54638671875 169.5283355712891 C 752.5770263671875 167.5683135986328 750.579345703125 164.1671905517578 746.828125 159.9926147460938 C 743.3029174804688 156.0695495605469 738.9461059570312 152.2451934814453 733.8788452148438 148.6258392333984 C 727.5110473632812 144.0775909423828 720.000732421875 139.8446655273438 711.5565185546875 136.0446929931641 C 701.713134765625 131.6151733398438 692.2435913085938 128.3916168212891 683.4110107421875 126.4635162353516 C 675.66650390625 124.77294921875 669.8916625976562 124.4180908203125 666.4109497070312 124.4180908203125 M 666.4109497070312 120.4180908203125 C 674.4633178710938 120.4181060791016 690.3712158203125 122.1249847412109 713.197998046875 132.3969879150391 C 752.1480102539062 149.9249877929688 758.1610107421875 170.1809997558594 758.1610107421875 170.1809997558594 L 722.1220092773438 214.8009948730469 C 684.3670043945312 178.3320007324219 638.802978515625 173.6839904785156 638.802978515625 173.6839904785156 C 638.802978515625 173.6839904785156 657.9990234375 121.6220245361328 660.3410034179688 120.8409881591797 C 660.3410034179688 120.8409881591797 662.4027709960938 120.4180908203125 666.4109497070312 120.4180908203125 Z" stroke="none" fill="#a0c6f4"/>
        </g>
        <path id="Path_2" data-name="Path 2" d="M645.493,177.728s44.8,4.526,72.408,29.868" transform="translate(-638.803 -120.418)" fill="rgba(0,0,0,0)" stroke="#2a1e17" stroke-linecap="round" stroke-linejoin="round" stroke-width="1"/>
        <path id="Path_3" data-name="Path 3" d="M684.18,175.543l16.714-32.5,17.178,33.892Z" transform="translate(-638.803 -120.418)" fill="#a0c6f4" stroke="rgba(0,0,0,0)" stroke-width="1"/>
        <path id="Path_4" data-name="Path 4" d="M687.43,175.079l16.714-32.5,17.178,33.892Z" transform="translate(-638.803 -120.418)" fill="rgba(0,0,0,0)" stroke="#2a1e17" stroke-linecap="round" stroke-linejoin="round" stroke-width="1"/>
      </g>
      <path id="Path_5" data-name="Path 5" d="M671.74,118.444s50.234,4.525,81.46,41.635" transform="translate(-638.803 -118.444)" fill="rgba(0,0,0,0)" stroke="#2a1e17" stroke-linecap="round" stroke-linejoin="round" stroke-width="1"/>
    </g>
    <path id="Path_6" data-name="Path 6" d="M697.406,262.462c-2.757-2.028-4.569-3.388-4.569-3.388.765-1.02,12.854-13.9,19.853-24.276C712.69,234.8,698.535,263.292,697.406,262.462Z" transform="translate(-8.768 0.496)" fill="#2a1e17" stroke="rgba(0,0,0,0)" stroke-width="1"/>
    <path id="Path_7" data-name="Path 7" d="M526.12,168.592c1.347,2.244,1.945,1.346,5.834,1.047s9.424,2.543,11.368,7.33,1.347,5.534.3,6.133-8.527,1.495-8.826,2.991" transform="translate(-5.574 0.227)" fill="rgba(0,0,0,0)" stroke="#2a1e17" stroke-linecap="round" stroke-linejoin="round" stroke-width="1"/>
    <path id="Path_8" data-name="Path 8" d="M557.524,422.006" transform="translate(-6.032 1.374)" fill="#eaecec" stroke="rgba(0,0,0,0)" stroke-width="1"/>
    <g id="Group_3" data-name="Group 3" transform="translate(517.111 150.202)">
      <path id="Path_9" data-name="Path 9" d="M626.892,412.053l-3.485-5.89L611.044,426.77l3.245,2.5Z" transform="translate(-525.243 -148.827)" fill="#f9865f" stroke="rgba(0,0,0,0)" stroke-width="1"/>
      <path id="Path_10" data-name="Path 10" d="M544.8,360.953s-6.406-10.416-3.658-15.52l20.438,2.187Z" transform="translate(-525.243 -149.264)" fill="#f9865f" stroke="rgba(0,0,0,0)" stroke-width="1"/>
      <path id="Path_11" data-name="Path 11" d="M544.8,360.953l1.224,2.813-3.775,14.725a5.04,5.04,0,0,0,1.589,5.067h0l18.691-27.63a6.426,6.426,0,0,0-.949-8.308l-4.177-3.88Z" transform="translate(-525.243 -149.186)" stroke="rgba(0,0,0,0)" stroke-width="1"/>
      <path id="Path_12" data-name="Path 12" d="M534.8,186.093c5.853-.139,13.27-.51,11.787-4.96s-7.046-15.576-19.655-12.238c0,0-4.45,3.708,1.112,10.384S534.8,186.093,534.8,186.093Z" transform="translate(-525.243 -150.202)" fill="#2a1e33" stroke="rgba(0,0,0,0)" stroke-width="1"/>
      <path id="Path_13" data-name="Path 13" d="M564.421,347.866s-9.991-29.5-1.537-42.45c6.978-10.689,29.773,6.7,32.9,9.04L612.091,285s-3.765-5.279-13.009-10.448S551.648,253.9,533.7,282.22c-6.633,10.465-6.734,55.372,5.987,72.583Z" transform="translate(-525.243 -149.455)" fill="#7595ec" stroke="rgba(0,0,0,0)" stroke-width="1"/>
      <path id="Path_14" data-name="Path 14" d="M564.421,347.866s-9.991-29.5-1.537-42.45c6.978-10.689,29.773,6.7,32.9,9.04" transform="translate(-525.243 -149.386)" fill="rgba(0,0,0,0)" stroke="#2a1e17" stroke-linecap="round" stroke-linejoin="round" stroke-width="1"/>
      <path id="Path_15" data-name="Path 15" d="M612.091,285c-7.418,7.809-29.411,45.848-34.357,64.029-6.615,24.319-4.127,44.488,32.232,83.981l17.575-25.6s-12.357-18.765-10.05-36.453c3.337-25.589,21.548-50.4,30.762-66.139Z" transform="translate(-525.243 -148.827)" fill="#7595ec" stroke="rgba(0,0,0,0)" stroke-width="1"/>
      <path id="Path_16" data-name="Path 16" d="M614.883,288.305l29.237,22.945,8.736-13.284Z" transform="translate(-525.243 -149.521)" fill="#2a1e17" stroke="rgba(0,0,0,0)" stroke-width="1"/>
      <path id="Path_17" data-name="Path 17" d="M782.8,264.18q6.839,1.466,10.421,5.21c2.388,2.5,1.3,3.8.434,4.559s-4.233-.108-7.164-2.713S782.8,264.18,782.8,264.18Z" transform="translate(-525.243 -149.665)" fill="#ff8a66" stroke="rgba(0,0,0,0)" stroke-width="1"/>
      <path id="Path_18" data-name="Path 18" d="M692.837,259.074c.765-1.02,12.854-13.9,19.853-24.276,0,0,21.154,23.7,23.448,24.468.853.284,6.039.216,12.48.15,10.884-.113,25.352-.222,28.554,1.379,5.1,2.549,8.156,3.823,9.43,7.391s1.777,5.9-1.274,6.117c-3.568.255-5.862-4.332-5.862-4.332a71.235,71.235,0,0,1-10.45,4.587s-27.107,10.524-45.227,5.435C718.841,278.6,692.837,259.074,692.837,259.074Z" transform="translate(-525.243 -149.746)" fill="#f9865f" stroke="rgba(0,0,0,0)" stroke-width="1"/>
      <path id="Path_19" data-name="Path 19" d="M528.514,164.4c-2.327.886-3.74,1.944-2.394,4.188s1.945,1.346,5.834,1.047,9.424,2.543,11.368,7.33,1.347,5.534.3,6.133-8.527,1.495-8.826,2.991,3.031,5.911,9.912,5.612l1.645-.3s14.471,14.133,16.565,16.227,17.484,12.521,25.962,14.64c6.444,1.612,19.5-.467,27.344-2,3.81-.743,6.392-1.358,6.392-1.358s-5.888-10.6-7.084-26.909c0,0-14.085,2.263-23.444,4.316,0,0-21.841-12.176-32.461-17.561,0,0-9.274-11.369-13.612-12.865S531.655,163.207,528.514,164.4Z" transform="translate(-525.243 -150.202)" fill="#f9865f" stroke="rgba(0,0,0,0)" stroke-width="1"/>
      <path id="Path_20" data-name="Path 20" d="M616.224,220.276c3.81-.743,6.392-1.358,6.392-1.358s-7.122-8.976-8.318-25.281c0,0-3.22,3.47-2.219,12.7C613.338,217.947,616.224,220.276,616.224,220.276Z" transform="translate(-525.243 -150.202)" fill="#2a1e17" stroke="rgba(0,0,0,0)" stroke-width="1"/>
      <path id="Path_21" data-name="Path 21" d="M613.953,191.812s.2,19.924,5.535,28.236l1.915-.766s-25.156,29.428-33.291,48.657c-1.332,3.147,52.228,37.359,60.141,36.879,0,0,26.1-39.828,35.02-51.634l9.592,7.433s18.814-19.052,19.825-25.819c0,0-18.172-22.112-33.039-28.587s-28.152-17.565-44.122-17.264C621.705,189.207,613.953,191.812,613.953,191.812Z" transform="translate(-525.243 -150.202)" fill="#fff7c9" stroke="rgba(0,0,0,0)" stroke-width="1"/>
      <path id="Path_22" data-name="Path 22" d="M692.865,260.617l-9.592-7.433,1.528-4.163Z" transform="translate(-525.243 -149.734)" fill="#2a1e17" stroke="rgba(0,0,0,0)" stroke-width="1"/>
      <path id="Path_23" data-name="Path 23" d="M707.456,181.832c-1.679,5.224-6.53,20.335-11.94,22.2s-11.042-.477-11.042-.477l-5.763,2.949c-.643,1.929-5.191,3.59-11.064,3.816-4.349.168-7-5.416-5.71-9.459.591-1.856,2.8-11.007,2.8-11.007s4.663-17.162,8.954-20.707,8.323-7.054,19.774-2.425C711,173.811,707.456,181.832,707.456,181.832Z" transform="translate(-525.243 -150.202)" fill="#f9865f" stroke="rgba(0,0,0,0)" stroke-width="1"/>
      <path id="Path_24" data-name="Path 24" d="M672.692,182.576c-.77,3.208-4.106,9.623-6.287,8.468s-2.951-4.106-1.411-9.751,2.822-18.475,7.184-20.784,6.287.384,6.287.384-1.924-9.365,3.721-10.648c0,0,1.924-.9,1.154,5.516a8.594,8.594,0,0,1,9.238-5.132c7.057.77,9.494,10.649,9.494,10.649a3.555,3.555,0,0,1,3.721-2.694c3.208,0,8.083,4.747,6.928,10.007,0,0,8.209-2.569,12.574,3.978s3.849,13.728-6.672,16.55c-11,2.952-10.9-9.879-12.573-11.547s-3.465-3.592-9.623-1.283-12.573-4.49-12.573-4.49-1.027,8.211-2.053,8.981-3.079,1.8-2.566-2.053,1.155-3.464.77-4.49-2.122-4.265-5.774-1.412C670.126,176.033,672.692,182.576,672.692,182.576Z" transform="translate(-525.243 -150.202)" fill="#2a1e33" stroke="rgba(0,0,0,0)" stroke-width="1"/>
      <path id="Path_25" data-name="Path 25" d="M674.438,184.013c-2.447-2.055-4.144-5.678-1.99-9.3s5.677-4.111,6.754-2.741,1.493,3.681.481,6.421" transform="translate(-525.243 -150.202)" fill="rgba(0,0,0,0)" stroke="#2a1e33" stroke-linecap="round" stroke-linejoin="round" stroke-width="1"/>
      <path id="Path_26" data-name="Path 26" d="M614.289,429.266l1.224,2.813L611.738,446.8a5.038,5.038,0,0,0,1.589,5.067h0l18.691-27.63a6.425,6.425,0,0,0-.95-8.308l-4.176-3.88Z" transform="translate(-525.243 -148.827)" stroke="rgba(0,0,0,0)" stroke-width="1"/>
      <path id="Path_27" data-name="Path 27" d="M678.465,160.893s-1.431-4.655-5.721-5.881" transform="translate(-525.243 -150.202)" fill="rgba(0,0,0,0)" stroke="#2a1e33" stroke-linecap="round" stroke-linejoin="round" stroke-width="1"/>
      <line id="Line_1" data-name="Line 1" y1="72.333" x2="51.782" transform="translate(62.283 43.999)" fill="none" stroke="#2a1e17" stroke-linecap="round" stroke-linejoin="round" stroke-width="1"/>
      <path id="Path_28" data-name="Path 28" d="M660.65,199.261c-1.865,2.426-2.715,12.864,5.868,13.542a23.215,23.215,0,0,0,14.071-3.093" transform="translate(-525.243 -149.968)" fill="rgba(0,0,0,0)" stroke="#2a1e17" stroke-linecap="round" stroke-linejoin="round" stroke-width="1"/>
      <path id="Path_29" data-name="Path 29" d="M546.015,165.9s5.919,7.835,6.849,10.625" transform="translate(-525.243 -150.202)" fill="rgba(0,0,0,0)" stroke="#2a1e17" stroke-linecap="round" stroke-linejoin="round" stroke-width="1"/>
      <path id="Path_30" data-name="Path 30" d="M767.636,270.928s3.954,3.256,11.83-.957c2.856-1.528.822-5.143-2.793-4.24a16.982,16.982,0,0,1-7.907-.451" transform="translate(-525.243 -149.665)" fill="rgba(0,0,0,0)" stroke="#2a1e17" stroke-linecap="round" stroke-linejoin="round" stroke-width="1"/>
      <path id="Path_31" data-name="Path 31" d="M784.158,264.632s3.794,4.426,3.69,7.056" transform="translate(-525.243 -149.668)" fill="rgba(0,0,0,0)" stroke="#2a1e17" stroke-linecap="round" stroke-linejoin="round" stroke-width="1"/>
      <path id="Path_32" data-name="Path 32" d="M728.323,264.15s3.43-4.571,7.815-4.884" transform="translate(-525.243 -149.697)" fill="rgba(0,0,0,0)" stroke="#2a1e17" stroke-linecap="round" stroke-linejoin="round" stroke-width="1"/>
      <path id="Path_33" data-name="Path 33" d="M583.668,203.71s2-6.238,8.42-7.385" transform="translate(-525.243 -150.202)" fill="rgba(0,0,0,0)" stroke="#2a1e17" stroke-linecap="round" stroke-linejoin="round" stroke-width="1"/>
      <path id="Path_34" data-name="Path 34" d="M601.056,298.385,593.4,313.029s-25.241,42.715-16.677,70.311" transform="translate(-525.243 -149.262)" fill="rgba(0,0,0,0)" stroke="#2a1e17" stroke-linecap="round" stroke-linejoin="round" stroke-width="1"/>
      <path id="Path_35" data-name="Path 35" d="M623.418,347.391l24.835-42.573s32.55-47.209,35.881-53.87L695.621,229.7" transform="translate(-525.243 -149.608)" fill="rgba(0,0,0,0)" stroke="#2a1e17" stroke-linecap="round" stroke-linejoin="round" stroke-width="1"/>
      <path id="Path_36" data-name="Path 36" d="M590.993,271.068s44.163,32.2,57.26,33.75" transform="translate(-525.243 -149.582)" fill="rgba(0,0,0,0)" stroke="#2a1e17" stroke-linecap="round" stroke-linejoin="round" stroke-width="1"/>
      <path id="Path_37" data-name="Path 37" d="M613.953,191.812s-.04,20.206,5.407,28.491" transform="translate(-525.243 -150.202)" fill="rgba(0,0,0,0)" stroke="#2a1e17" stroke-linecap="round" stroke-linejoin="round" stroke-width="1"/>
      <path id="Path_38" data-name="Path 38" d="M711.272,231.6c-1.387,8.329-19.825,25.819-19.825,25.819" transform="translate(-525.243 -149.796)" fill="rgba(0,0,0,0)" stroke="#2a1e17" stroke-linecap="round" stroke-linejoin="round" stroke-width="1"/>
    </g>
    <path id="Path_39" data-name="Path 39" d="M706.911,256.121" transform="translate(-8.816 0.538)" fill="#2a1e17" stroke="rgba(0,0,0,0)" stroke-width="1"/>
    <path id="Path_40" data-name="Path 40" d="M789.613,315.892" transform="translate(-10.357 0.758)" fill="#f9865f" stroke="rgba(0,0,0,0)" stroke-width="1"/>
    <circle id="Ellipse_1" data-name="Ellipse 1" cx="2.623" cy="2.623" r="2.623" transform="translate(564.763 330.899)" fill="#2a1e17" stroke="rgba(0,0,0,0)" stroke-width="1"/>
    <g id="Group_4" data-name="Group 4" transform="translate(510.995 215.646)">
      <path id="Path_41" data-name="Path 41" d="M819.753,389.052,818.3,379.021l8.556,5.688-4.478.976Z" transform="translate(-519.994 -214.823)" fill="rgba(0,0,0,0)" stroke="#2a1e17" stroke-linecap="round" stroke-linejoin="round" stroke-width="1"/>
      <path id="Path_42" data-name="Path 42" d="M536.012,217.817c-16.213-14.305-43,21.366,55.03,134.9,56.551,65.495,100.984,71.369,107,48.583,10.8-40.88-28.2-51.214-13.689-35.2,21.1,23.282,81.119,28.2,125.842,6.474,44.13-21.438,17.005-54.731,14.265-56.673" transform="translate(-519.994 -214.823)" fill="rgba(0,0,0,0)" stroke="#2a1e17" stroke-linecap="round" stroke-linejoin="round" stroke-width="1"/>
      <circle id="Ellipse_2" data-name="Ellipse 2" cx="2.623" cy="2.623" r="2.623" transform="translate(288.287 154.926)" fill="#2a1e17" stroke="rgba(0,0,0,0)" stroke-width="1"/>
      <line id="Line_2" data-name="Line 2" y1="43.813" x2="77.733" transform="translate(252.75 135.14)" fill="none" stroke="#2a1e17" stroke-linecap="round" stroke-linejoin="round" stroke-width="1"/>
      <circle id="Ellipse_3" data-name="Ellipse 3" cx="2.623" cy="2.623" r="2.623" transform="translate(15.012 2.491)" fill="#2a1e17" stroke="rgba(0,0,0,0)" stroke-width="1"/>
    </g>
    <circle id="Ellipse_4" data-name="Ellipse 4" cx="5.626" cy="5.626" r="5.626" transform="translate(591.972 160.169)" fill="#ff6d66" stroke="rgba(0,0,0,0)" stroke-width="1"/>
    <g id="Ellipse_5" data-name="Ellipse 5" transform="translate(494.943 122.884)" fill="rgba(0,0,0,0)" stroke="#a0c6f4" stroke-miterlimit="10" stroke-width="4">
      <circle cx="2.473" cy="2.473" r="2.473" stroke="none"/>
      <circle cx="2.473" cy="2.473" r="0.473" fill="none"/>
    </g>
    <circle id="Ellipse_6" data-name="Ellipse 6" cx="2.473" cy="2.473" r="2.473" transform="translate(820.128 426.491)" fill="#fad8b0" stroke="rgba(0,0,0,0)" stroke-width="1"/>
    <g id="Group_5" data-name="Group 5" transform="translate(750.42 246.582)">
      <path id="Path_43" data-name="Path 43" d="M789.613,315.892l-26.588-12.477a2.76,2.76,0,0,1,.061-5.025l49.465-21.765a2.763,2.763,0,0,1,2.2-.01L848.727,291.2Z" transform="translate(-761.438 -245.966)" fill="#2a1e33" stroke="rgba(0,0,0,0)" stroke-width="1"/>
      <path id="Path_44" data-name="Path 44" d="M787.966,274.886c.068,11,1.647,41.006,1.647,41.006L848.727,291.2,847.4,249.446a3.59,3.59,0,0,0-5.077-3.153l-50.9,23.194A5.893,5.893,0,0,0,787.966,274.886Z" transform="translate(-761.438 -245.966)" fill="#c6cbcb" stroke="rgba(0,0,0,0)" stroke-width="1"/>
      <path id="Path_45" data-name="Path 45" d="M789.613,315.892,848.727,291.2,847.4,249.446s-.394-4.558-5.077-3.153" transform="translate(-761.438 -245.966)" fill="rgba(0,0,0,0)" stroke="#2a1e17" stroke-linecap="round" stroke-linejoin="round" stroke-width="1"/>
      <line id="Line_3" data-name="Line 3" y1="9.434" x2="3.991" transform="translate(56.787 30.484)" fill="none" stroke="#2a1e17" stroke-linecap="round" stroke-linejoin="round" stroke-width="1"/>
      <line id="Line_4" data-name="Line 4" y1="9.434" x2="3.991" transform="translate(60.779 30.484)" fill="none" stroke="#2a1e17" stroke-linecap="round" stroke-linejoin="round" stroke-width="1"/>
    </g>
    <circle id="Ellipse_7" data-name="Ellipse 7" cx="2.473" cy="2.473" r="2.473" transform="translate(505.405 384.861)" fill="#ff6d66" stroke="rgba(0,0,0,0)" stroke-width="1"/>
    <circle id="Ellipse_8" data-name="Ellipse 8" cx="3.436" cy="3.436" r="3.436" transform="translate(709.06 396.199)" fill="#ff6d66" stroke="rgba(0,0,0,0)" stroke-width="1"/>
    <g id="Group_6" data-name="Group 6" transform="translate(526.479 424.22)">
      <path id="Path_46" data-name="Path 46" d="M538.7,422.985a73.4,73.4,0,0,0,31.23,6.7,1.406,1.406,0,0,1,1.4,1.586l-2.158,17.126a1.408,1.408,0,0,1-1.14,1.21c-4.377.822-22.021,3.243-35.218-7.948a1.405,1.405,0,0,1-.439-1.434l4.361-16.326A1.407,1.407,0,0,1,538.7,422.985Z" transform="translate(-532.322 -422.846)" fill="#fff7dc" stroke="rgba(0,0,0,0)" stroke-width="1"/>
      <path id="Path_47" data-name="Path 47" d="M540.25,428.018s7.624,10.713,10.343,12.247,17.4-7.214,17.4-7.214" transform="translate(-532.322 -422.846)" fill="rgba(0,0,0,0)" stroke="#2a1e17" stroke-linecap="round" stroke-linejoin="round" stroke-width="1"/>
      <line id="Line_5" data-name="Line 5" x2="8.009" y2="8.233" transform="translate(25.458 15.925)" fill="none" stroke="#2a1e17" stroke-linecap="round" stroke-linejoin="round" stroke-width="1"/>
      <line id="Line_6" data-name="Line 6" x1="9.368" y2="2.547" transform="translate(4.963 14.339)" fill="none" stroke="#2a1e17" stroke-linecap="round" stroke-linejoin="round" stroke-width="1"/>
    </g>
    <rect id="Rectangle_2" data-name="Rectangle 2" width="8.948" height="8.948" transform="translate(764.8 220.804)" fill="#ffe1c0" stroke="rgba(0,0,0,0)" stroke-width="1"/>
    <path id="Path_48" data-name="Path 48" d="M776.209,341.086l2.66,4.607,2.66,4.607H770.89l2.66-4.607Z" transform="translate(-10.141 0.872)" fill="#a0c6f4" stroke="rgba(0,0,0,0)" stroke-width="1"/>
    <g id="Group_7" data-name="Group 7" transform="translate(554.678 110.782)">
      <path id="Path_49" data-name="Path 49" d="M561.153,137.008l.693-20.913c-.073-1.953.722-2.575,1.925-2.841,5.681-1.256,22.95-5.106,41.733.446,2.427.718,2.349,2,2.31,3.159l-.671,19.938a2.7,2.7,0,0,1-3.286,2.274,144.9,144.9,0,0,0-20.517-.987,116.2,116.2,0,0,0-19.68,1.587C561.8,140.03,561.1,138.642,561.153,137.008Z" transform="translate(-561.15 -110.782)" fill="rgba(0,0,0,0)" stroke="#2a1e17" stroke-linecap="round" stroke-linejoin="round" stroke-width="1"/>
      <path id="Path_50" data-name="Path 50" d="M567.473,133.95l10.932-12.8,12.1,11.943C586.335,131.737,567.473,133.95,567.473,133.95Z" transform="translate(-561.15 -110.782)" fill="rgba(0,0,0,0)" stroke="#2a1e17" stroke-linecap="round" stroke-linejoin="round" stroke-width="1"/>
      <path id="Path_51" data-name="Path 51" d="M585.106,127.077,593.944,120l7.447,5.316.28,8.31-11.165-.534" transform="translate(-561.15 -110.782)" fill="rgba(0,0,0,0)" stroke="#2a1e17" stroke-linecap="round" stroke-linejoin="round" stroke-width="1"/>
      <ellipse id="Ellipse_9" data-name="Ellipse 9" cx="1.825" cy="2.152" rx="1.825" ry="2.152" transform="matrix(0.101, -0.995, 0.995, 0.101, 6.617, 10.811)" fill="rgba(0,0,0,0)" stroke="#2a1e17" stroke-linecap="round" stroke-linejoin="round" stroke-width="1"/>
    </g>
    <g id="Group_8" data-name="Group 8" transform="translate(733.276 408.875)">
      <path id="Path_52" data-name="Path 52" d="M772.547,408.708l7.334,13.542c.772,1.213.5,1.9-.167,2.519-3.142,2.911-12.68,11.776-26.675,15.231-1.808.446-2.236-.4-2.642-1.147l-6.985-12.915a1.984,1.984,0,0,1,1.242-2.666,106.656,106.656,0,0,0,13.4-7,85.527,85.527,0,0,0,11.911-8.324C771.015,407.028,771.974,407.65,772.547,408.708Z" transform="translate(-743.224 -407.501)" fill="rgba(0,0,0,0)" stroke="#2a1e17" stroke-linecap="round" stroke-linejoin="round" stroke-width="1"/>
      <path id="Path_53" data-name="Path 53" d="M769.669,413l-2.187,12.193-12.127-3.087C758.511,421.417,769.669,413,769.669,413Z" transform="translate(-743.224 -407.501)" fill="rgba(0,0,0,0)" stroke="#2a1e17" stroke-linecap="round" stroke-linejoin="round" stroke-width="1"/>
      <path id="Path_54" data-name="Path 54" d="M761.023,423.921l-2.985,7.778-6.707-.608-3.267-5.175,7.291-3.811" transform="translate(-743.224 -407.501)" fill="rgba(0,0,0,0)" stroke="#2a1e17" stroke-linecap="round" stroke-linejoin="round" stroke-width="1"/>
      <ellipse id="Ellipse_10" data-name="Ellipse 10" cx="1.584" cy="1.343" rx="1.584" ry="1.343" transform="translate(27.97 14.774) rotate(-24.564)" fill="rgba(0,0,0,0)" stroke="#2a1e17" stroke-linecap="round" stroke-linejoin="round" stroke-width="1"/>
    </g>
    <g id="Group_11" data-name="Group 11" transform="translate(725.843 141.267)">
      <g id="Group_9" data-name="Group 9" transform="translate(0 26.825)">
        <path id="Path_55" data-name="Path 55" d="M736.847,177.528l29.8,22.8a1.472,1.472,0,0,0,2.079-.295l4.5-6.1a1.472,1.472,0,0,0-.265-2.023l-29.375-23.5a1.471,1.471,0,0,0-2.111.286l-4.919,6.8A1.471,1.471,0,0,0,736.847,177.528Z" transform="translate(-736.27 -168.091)" fill="#fff" stroke="#2a1e17" stroke-linecap="round" stroke-linejoin="round" stroke-width="1"/>
        <path id="Path_56" data-name="Path 56" d="M739.053,176.511l7.226,5.07,4.263-5.089-7.227-6.028Z" transform="translate(-736.27 -168.091)" fill="#ff6d66" stroke="rgba(0,0,0,0)" stroke-width="1"/>
        <path id="Path_57" data-name="Path 57" d="M749,183.558l7.235,5.74,3.878-4.771-7.283-5.91Z" transform="translate(-736.27 -168.091)" fill="#fad8b0" stroke="rgba(0,0,0,0)" stroke-width="1"/>
        <path id="Path_58" data-name="Path 58" d="M758.667,191.5l7.226,5.07,3.442-4.422-6.844-5.728Z" transform="translate(-736.27 -168.091)" fill="#a0c6f4" stroke="rgba(0,0,0,0)" stroke-width="1"/>
      </g>
      <g id="Group_10" data-name="Group 10" transform="translate(60.012)">
        <path id="Path_59" data-name="Path 59" d="M796.3,145.646l6.789,57.056a2.254,2.254,0,0,0,2.544,1.967l11.5-1.574a2.253,2.253,0,0,0,1.937-2.451L813.492,143.3a2.254,2.254,0,0,0-2.57-2.012L798.21,143.15A2.253,2.253,0,0,0,796.3,145.646Z" transform="translate(-796.282 -141.267)" fill="#fff" stroke="#2a1e17" stroke-linecap="round" stroke-linejoin="round" stroke-width="1"/>
        <path id="Path_60" data-name="Path 60" d="M799.77,146.98l2.152,13.345,10.138-.755-1.1-14.37Z" transform="translate(-796.282 -141.267)" fill="#ff6d66" stroke="rgba(0,0,0,0)" stroke-width="1"/>
        <path id="Path_61" data-name="Path 61" d="M802.657,165.422l1.426,14.071,9.378-.839-1.292-14.3Z" transform="translate(-796.282 -141.267)" fill="#91ba83" stroke="rgba(0,0,0,0)" stroke-width="1"/>
        <path id="Path_62" data-name="Path 62" d="M804.261,184.52l2.152,13.345,8.529-.945-1.023-13.629Z" transform="translate(-796.282 -141.267)" fill="#fad8b0" stroke="rgba(0,0,0,0)" stroke-width="1"/>
      </g>
      <path id="Path_63" data-name="Path 63" d="M781.476,157.794l18.8,55.266a1.792,1.792,0,0,0,2.3,1.109l11.777-4.239a1.794,1.794,0,0,0,1.1-2.228L797.806,151.89a1.793,1.793,0,0,0-2.332-1.141l-12.923,4.786A1.793,1.793,0,0,0,781.476,157.794Z" transform="translate(-736.27 -141.267)" fill="#fff" stroke="#2a1e17" stroke-linecap="round" stroke-linejoin="round" stroke-width="1"/>
      <path id="Path_64" data-name="Path 64" d="M785.295,158.8l4.88,12.606,9.76-2.847-4.067-13.826Z" transform="translate(-736.27 -141.267)" fill="#a0c6f4" stroke="rgba(0,0,0,0)" stroke-width="1"/>
      <path id="Path_65" data-name="Path 65" d="M791.953,176.24l4.321,13.467,9-2.77-4.238-13.724Z" transform="translate(-736.27 -141.267)" fill="#f9865f" stroke="rgba(0,0,0,0)" stroke-width="1"/>
      <path id="Path_66" data-name="Path 66" d="M797.494,194.587l4.88,12.606,8.146-2.7-3.835-13.118Z" transform="translate(-736.27 -141.267)" fill="#fad8b0" stroke="rgba(0,0,0,0)" stroke-width="1"/>
    </g>
    <g id="Group_12" data-name="Group 12" transform="translate(532.802 228.064)">
      <rect id="Rectangle_3" data-name="Rectangle 3" width="105.912" height="23.81" rx="5.484" fill="#7595ec" stroke="rgba(0,0,0,0)" stroke-width="1"/>
      <rect id="Rectangle_4" data-name="Rectangle 4" width="55.383" height="3.623" rx="1.812" transform="translate(11.284 7.01)" fill="#fff" stroke="rgba(0,0,0,0)" stroke-width="1"/>
      <line id="Line_7" data-name="Line 7" x2="87.992" transform="translate(11.802 15.326)" fill="none" stroke="#2a1e17" stroke-linecap="round" stroke-linejoin="round" stroke-width="1"/>
    </g>
    <g id="Group_13" data-name="Group 13" transform="translate(487.085 173.358)">
      <path id="Rectangle_5" data-name="Rectangle 5" d="M0,0H2.223a1.7,1.7,0,0,1,1.7,1.7V5.02a1.7,1.7,0,0,1-1.7,1.7H0a0,0,0,0,1,0,0V0A0,0,0,0,1,0,0Z" transform="matrix(0.674, 0.738, -0.738, 0.674, 14.136, 9.7)" fill="#91ba83" stroke="rgba(0,0,0,0)" stroke-width="1"/>
      <rect id="Rectangle_6" data-name="Rectangle 6" width="12.429" height="8.568" rx="0.98" transform="matrix(-0.674, -0.738, 0.738, -0.674, 8.382, 14.955)" fill="rgba(0,0,0,0)" stroke="#2a1e17" stroke-linecap="round" stroke-linejoin="round" stroke-width="1"/>
    </g>
    <g id="Group_14" data-name="Group 14" transform="translate(466.603 209.91)">
      <rect id="Rectangle_7" data-name="Rectangle 7" width="8.871" height="8.1" transform="translate(5.306 5.212)" fill="#ff6d66" stroke="rgba(0,0,0,0)" stroke-width="1"/>
      <path id="Path_67" data-name="Path 67" d="M476.409,209.53v5.212H471.1" transform="translate(-471.103 -209.53)" fill="rgba(0,0,0,0)" stroke="#2a1e17" stroke-linecap="round" stroke-linejoin="round" stroke-width="1"/>
    </g>
    <g id="Group_15" data-name="Group 15" transform="translate(753.309 118.06)">
      <rect id="Rectangle_8" data-name="Rectangle 8" width="8.871" height="8.1" transform="translate(5.306 5.212)" fill="#fad8b0" stroke="rgba(0,0,0,0)" stroke-width="1"/>
      <path id="Path_68" data-name="Path 68" d="M768.659,118.06v5.212h-5.306" transform="translate(-763.352 -118.06)" fill="rgba(0,0,0,0)" stroke="#2a1e17" stroke-linecap="round" stroke-linejoin="round" stroke-width="1"/>
    </g>
    <g id="Group_17" data-name="Group 17" transform="translate(421.32 156.918)">
      <path id="Path_69" data-name="Path 69" d="M528.571,173.339c-91.964-38.122-162.762,35.3,10.593,147.725,13.651,8.853,34.584,11.959,34.584,11.959" transform="translate(-425.694 -156.918)" fill="rgba(0,0,0,0)" stroke="#2a1e17" stroke-linecap="round" stroke-linejoin="round" stroke-width="1"/>
      <circle id="Ellipse_11" data-name="Ellipse 11" cx="2.623" cy="2.623" r="2.623" transform="translate(15.672 16.362)" fill="#2a1e17" stroke="rgba(0,0,0,0)" stroke-width="1"/>
      <g id="Group_16" data-name="Group 16">
        <path id="Path_70" data-name="Path 70" d="M427.3,161.51l2.87-2.755,6.6,3.775,3.316,10.232-10.127-4.238Z" transform="translate(-425.694 -156.918)" fill="rgba(0,0,0,0)" stroke="#2a1e17" stroke-linecap="round" stroke-linejoin="round" stroke-width="1"/>
        <path id="Path_71" data-name="Path 71" d="M430.171,158.755l-2.87,2.755-1.607-1.952,2.755-2.64Z" transform="translate(-425.694 -156.918)" fill="rgba(0,0,0,0)" stroke="#2a1e17" stroke-linecap="round" stroke-linejoin="round" stroke-width="1"/>
        <line id="Line_9" data-name="Line 9" x1="6.585" y1="7.235" transform="translate(7.805 8.608)" fill="none" stroke="#2a1e17" stroke-linecap="round" stroke-linejoin="round" stroke-width="1"/>
      </g>
    </g>
    <g id="Group_18" data-name="Group 18" transform="translate(451.767 353.777)">
      <path id="Path_72" data-name="Path 72" d="M456.025,356.342l7.149,36.834a1.47,1.47,0,0,0,1.75,1.159l7.412-1.574a1.473,1.473,0,0,0,1.145-1.689l-6.37-37.077a1.472,1.472,0,0,0-1.769-1.188l-8.191,1.818A1.473,1.473,0,0,0,456.025,356.342Z" transform="translate(-455.998 -352.772)" fill="#fff" stroke="#2a1e17" stroke-linecap="round" stroke-linejoin="round" stroke-width="1"/>
      <path id="Path_73" data-name="Path 73" d="M458.351,357.045l2.039,8.588,6.566-.976-1.4-9.306Z" transform="translate(-455.998 -352.772)" fill="#ff6d66" stroke="rgba(0,0,0,0)" stroke-width="1"/>
      <path id="Path_74" data-name="Path 74" d="M461.112,368.918l1.6,9.1,6.067-.994-1.525-9.254Z" transform="translate(-455.998 -352.772)" fill="#fad8b0" stroke="rgba(0,0,0,0)" stroke-width="1"/>
      <path id="Path_75" data-name="Path 75" d="M463.069,381.279l2.039,8.588,5.51-1.023-1.317-8.827Z" transform="translate(-455.998 -352.772)" fill="#a0c6f4" stroke="rgba(0,0,0,0)" stroke-width="1"/>
    </g>
    <g id="Group_22" data-name="Group 22" transform="translate(637.875 441.943)">
      <path id="Path_76" data-name="Path 76" d="M660.71,448.656l30.209-8.087,1.152,3.274-30.549,7.93Z" transform="translate(-646.018 -440.569)" fill="rgba(0,0,0,0)" stroke="#2a1e17" stroke-linecap="round" stroke-linejoin="round" stroke-width="1"/>
      <g id="Group_19" data-name="Group 19" transform="translate(9.649 3.862)">
        <line id="Line_10" data-name="Line 10" x2="0.871" y2="2.743" transform="translate(0.851)" fill="none" stroke="#2a1e17" stroke-linecap="round" stroke-linejoin="round" stroke-width="1"/>
        <line id="Line_11" data-name="Line 11" y1="0.876" x2="2.549" transform="translate(0 0.913)" fill="none" stroke="#2a1e17" stroke-linecap="round" stroke-linejoin="round" stroke-width="1"/>
      </g>
      <g id="Group_20" data-name="Group 20" transform="translate(7.634 14.336)">
        <line id="Line_12" data-name="Line 12" x2="1.644" y2="5.174" transform="translate(1.4)" fill="none" stroke="#2a1e17" stroke-linecap="round" stroke-linejoin="round" stroke-width="1"/>
        <line id="Line_13" data-name="Line 13" y1="1.442" x2="4.539" transform="translate(0 1.838)" fill="none" stroke="#2a1e17" stroke-linecap="round" stroke-linejoin="round" stroke-width="1"/>
      </g>
      <g id="Group_21" data-name="Group 21" transform="translate(0 5.797)">
        <line id="Line_14" data-name="Line 14" x2="2.144" y2="6.852" transform="translate(2.131)" fill="none" stroke="#2a1e17" stroke-linecap="round" stroke-linejoin="round" stroke-width="1"/>
        <line id="Line_15" data-name="Line 15" y1="2.031" x2="6.361" transform="translate(0 2.237)" fill="none" stroke="#2a1e17" stroke-linecap="round" stroke-linejoin="round" stroke-width="1"/>
      </g>
    </g>
    <g id="Group_26" data-name="Group 26" transform="translate(417.714 109.677)">
      <path id="Path_77" data-name="Path 77" d="M440.448,120.495l-19.117-8.629.792-2.189,19.227,8.855Z" transform="translate(-421.331 -109.677)" fill="rgba(0,0,0,0)" stroke="#2a1e17" stroke-linecap="round" stroke-linejoin="round" stroke-width="0.671"/>
      <g id="Group_23" data-name="Group 23" transform="translate(19.005 12.997)">
        <line id="Line_16" data-name="Line 16" y1="1.794" x2="0.712" transform="translate(0.494)" fill="none" stroke="#2a1e17" stroke-linecap="round" stroke-linejoin="round" stroke-width="0.671"/>
        <line id="Line_17" data-name="Line 17" x1="1.695" y1="0.628" transform="translate(0 0.599)" fill="none" stroke="#2a1e17" stroke-linecap="round" stroke-linejoin="round" stroke-width="0.671"/>
      </g>
      <g id="Group_24" data-name="Group 24" transform="translate(23.858 6.592)">
        <line id="Line_18" data-name="Line 18" y1="3.384" x2="1.344" transform="translate(0.849)" fill="none" stroke="#2a1e17" stroke-linecap="round" stroke-linejoin="round" stroke-width="0.671"/>
        <line id="Line_19" data-name="Line 19" x1="2.969" y1="1.179" transform="translate(0 1.097)" fill="none" stroke="#2a1e17" stroke-linecap="round" stroke-linejoin="round" stroke-width="0.671"/>
      </g>
      <g id="Group_25" data-name="Group 25" transform="translate(23.419 12.873)">
        <line id="Line_20" data-name="Line 20" y1="4.468" x2="1.797" transform="translate(1.246)" fill="none" stroke="#2a1e17" stroke-linecap="round" stroke-linejoin="round" stroke-width="0.671"/>
        <line id="Line_21" data-name="Line 21" x1="4.165" y1="1.647" transform="translate(0 1.51)" fill="none" stroke="#2a1e17" stroke-linecap="round" stroke-linejoin="round" stroke-width="0.671"/>
      </g>
    </g>
    <g id="Group_27" data-name="Group 27" transform="translate(460.267 240.003)">
      <path id="Path_78" data-name="Path 78" d="M511.886,281.936c-13.474-9.7-26.713-24.777-20.906-40.263,0,0,9.292-6.194,24,1.549l14.711,7.743Z" transform="translate(-464.977 -239.327)" fill="#fad8b0" stroke="rgba(0,0,0,0)" stroke-width="1"/>
      <g id="Path_79" data-name="Path 79" transform="translate(-464.977 -239.327)" fill="#fff" stroke-miterlimit="10">
        <path d="M 505.7769165039062 346.5682067871094 C 503.1328125 345.3253173828125 496.7191772460938 342.0771179199219 489.9931335449219 336.9324951171875 C 484.8873901367188 333.0271911621094 480.6025085449219 328.808349609375 477.2575073242188 324.3932495117188 C 473.1151428222656 318.9256591796875 470.4118957519531 313.1389465332031 469.222900390625 307.19384765625 C 468.0313110351562 301.2360229492188 468.4768371582031 294.1548461914062 470.5470581054688 286.1470336914062 C 472.2229614257812 279.6646118164062 474.9583129882812 272.5782775878906 478.6771545410156 265.0848388671875 C 481.9749145507812 258.4398193359375 485.4700927734375 252.6511383056641 488.0790710449219 248.6067352294922 C 487.9089965820312 253.8469390869141 489.5278625488281 259.2540283203125 492.9260864257812 264.7615051269531 C 497.85546875 272.7506408691406 505.4807434082031 279.1726989746094 511.009521484375 283.1533203125 C 518.7315673828125 288.7129516601562 524.4096069335938 291.4320983886719 532.2425537109375 294.3726806640625 L 505.7769165039062 346.5682067871094 Z" stroke="none"/>
        <path d="M 486.9181518554688 253.2816772460938 C 484.7801818847656 256.7925415039062 482.3517456054688 261.0547485351562 480.0208129882812 265.7516479492188 C 476.3480834960938 273.1521606445312 473.6492919921875 280.1405029296875 471.9993286132812 286.5224914550781 C 469.9862060546875 294.3095397949219 469.5469360351562 301.1654357910156 470.6937866210938 306.899658203125 C 471.8356323242188 312.609130859375 474.43798828125 318.1791687011719 478.4285888671875 323.4550170898438 C 481.6828002929688 327.7573852539062 485.8607482910156 331.8760070800781 490.8462829589844 335.6965026855469 C 496.5513000488281 340.068359375 502.0356140136719 343.0531616210938 505.1047058105469 344.5770263671875 L 530.1507568359375 295.1812744140625 C 522.9805908203125 292.4093017578125 517.46728515625 289.6510314941406 510.1330871582031 284.3706359863281 C 496.5453186035156 274.5876770019531 488.5645751953125 263.7420043945312 486.9181518554688 253.2816772460938 M 490.9800109863281 241.6730041503906 C 485.1730041503906 257.1589965820312 498.4119873046875 272.2349853515625 511.885986328125 281.9360046386719 C 519.9710083007812 287.7569885253906 525.6300048828125 290.3569946289062 534.3410034179688 293.5509948730469 L 506.4660034179688 348.5260009765625 C 506.4660034179688 348.5260009765625 473.1719970703125 334.5880126953125 467.7520141601562 307.4880065917969 C 462.33203125 280.3880004882812 490.9800109863281 241.6730041503906 490.9800109863281 241.6730041503906 Z" stroke="none" fill="#fad8b0"/>
      </g>
      <path id="Path_80" data-name="Path 80" d="M483.447,264.171a33.221,33.221,0,0,0,17.218,23.884" transform="translate(-464.977 -239.327)" fill="rgba(0,0,0,0)" stroke="#2a1e17" stroke-linecap="round" stroke-linejoin="round" stroke-width="1"/>
      <line id="Line_22" data-name="Line 22" x2="15.552" y2="8.331" transform="translate(44.02 54.282)" fill="none" stroke="#2a1e17" stroke-linecap="round" stroke-linejoin="round" stroke-width="1"/>
      <path id="Path_81" data-name="Path 81" d="M485.668,286.389s5,11.108,21.107,18.329" transform="translate(-464.977 -239.327)" fill="rgba(0,0,0,0)" stroke="#2a1e17" stroke-linecap="round" stroke-linejoin="round" stroke-width="1"/>
      <path id="Path_82" data-name="Path 82" d="M472.894,288.055s.555,11.664,8.331,15.552" transform="translate(-464.977 -239.327)" fill="rgba(0,0,0,0)" stroke="#2a1e17" stroke-linecap="round" stroke-linejoin="round" stroke-width="1"/>
      <path id="Path_83" data-name="Path 83" d="M490.667,247.508s-1.441,14.98,21.219,34.428" transform="translate(-464.977 -239.327)" fill="rgba(0,0,0,0)" stroke="#2a1e17" stroke-linecap="round" stroke-linejoin="round" stroke-width="1"/>
      <path id="Path_84" data-name="Path 84" d="M499,250.285s7.22-.555,17.774,7.221" transform="translate(-464.977 -239.327)" fill="rgba(0,0,0,0)" stroke="#2a1e17" stroke-linecap="round" stroke-linejoin="round" stroke-width="1"/>
      <path id="Path_85" data-name="Path 85" d="M465.043,298.111c-.465,7.429.464,34.357,39.463,51.535" transform="translate(-464.977 -239.327)" fill="rgba(0,0,0,0)" stroke="#2a1e17" stroke-linecap="round" stroke-linejoin="round" stroke-width="1"/>
    </g>
    <g id="Group_28" data-name="Group 28" transform="translate(639.28 284.016)">
      <path id="Path_86" data-name="Path 86" d="M714.073,283.13l-16.542,33.153s11.22,4.129,2.449,16.99c0,0,20.737,8.6,34.306-13.736S714.073,283.13,714.073,283.13Z" transform="translate(-647.955 -283.13)" fill="#91ba83" stroke="rgba(0,0,0,0)" stroke-width="1"/>
      <g id="Path_87" data-name="Path 87" transform="translate(-647.955 -283.13)" fill="#fff" stroke-miterlimit="10">
        <path d="M 676.2127685546875 384.4470520019531 C 667.8416748046875 384.4470520019531 659.0075073242188 381.0288696289062 649.9369506835938 374.2833251953125 L 680.8822021484375 323.0198364257812 L 699.1807250976562 334.5423278808594 L 699.2882080078125 334.6100158691406 L 699.4055786132812 334.6586608886719 C 699.5771484375 334.7297973632812 703.6736450195312 336.4002990722656 709.4566040039062 336.4006958007812 C 709.45703125 336.4006958007812 709.4580688476562 336.4006958007812 709.4585571289062 336.4006958007812 C 714.1083374023438 336.4006958007812 719.9736328125 335.3152465820312 725.6898193359375 331.2709045410156 L 703.0939331054688 369.9281311035156 C 702.858642578125 370.2735290527344 700.4193725585938 373.7778930664062 696.070068359375 377.2265319824219 C 693.4160766601562 379.3309631347656 690.5770874023438 381.0054626464844 687.6320190429688 382.2034606933594 C 683.9727783203125 383.6919250488281 680.1314697265625 384.4468078613281 676.2147827148438 384.4470520019531 C 676.2142333984375 384.4470520019531 676.2133178710938 384.4470520019531 676.2127685546875 384.4470520019531 Z" stroke="none"/>
        <path d="M 681.3764038085938 325.1036376953125 L 651.9315185546875 373.8816223144531 C 660.3480834960938 379.8991088867188 668.5072021484375 382.9470520019531 676.21484375 382.9470520019531 C 679.9166870117188 382.9470520019531 683.548828125 382.2372741699219 687.0104370117188 380.83740234375 C 689.8143310546875 379.7034606933594 692.5223388671875 378.1142883300781 695.0592041015625 376.1140441894531 C 699.157470703125 372.8826293945312 701.505859375 369.5875854492188 701.8262939453125 369.1243286132812 L 721.5609130859375 335.3623046875 C 717.2227172851562 337.3037719726562 713.0044555664062 337.9006958007812 709.4566650390625 337.9006958007812 C 703.3783569335938 337.9006958007812 699.0137939453125 336.1200561523438 698.8309936523438 336.0442504882812 L 698.5963745117188 335.9469604492188 L 681.3764038085938 325.1036376953125 M 734.2860107421875 319.5369873046875 L 704.364990234375 370.7260131835938 C 704.364990234375 370.7260131835938 683.64404296875 402.1741333007812 647.9550170898438 374.6640014648438 L 680.3880004882812 320.9360046386719 L 699.97998046875 333.2730102539062 C 699.9800415039062 333.2730407714844 720.7169799804688 341.8729858398438 734.2860107421875 319.5369873046875 Z" stroke="none" fill="#96bd89"/>
      </g>
      <path id="Path_88" data-name="Path 88" d="M697.531,316.283s12.338,4.356,2.449,16.99" transform="translate(-647.955 -283.13)" fill="rgba(0,0,0,0)" stroke="#2a1e17" stroke-linecap="round" stroke-linejoin="round" stroke-width="1"/>
      <path id="Path_89" data-name="Path 89" d="M680.005,319.785s16.8,15.394,26.109,15.29,20.213-2.319,26.649-13.417" transform="translate(-647.955 -283.13)" fill="rgba(0,0,0,0)" stroke="#2a1e17" stroke-linecap="round" stroke-linejoin="round" stroke-width="1"/>
      <path id="Path_90" data-name="Path 90" d="M682.066,339.7s11.536,10.243,24.435,6.953" transform="translate(-647.955 -283.13)" fill="rgba(0,0,0,0)" stroke="#2a1e17" stroke-linecap="round" stroke-linejoin="round" stroke-width="1"/>
      <path id="Path_91" data-name="Path 91" d="M694.182,355.007s6.053,4.536,14.513.246" transform="translate(-647.955 -283.13)" fill="rgba(0,0,0,0)" stroke="#2a1e17" stroke-linecap="round" stroke-linejoin="round" stroke-width="1"/>
      <path id="Path_92" data-name="Path 92" d="M666.341,361.319s13.965,13.887,35.948,4.727" transform="translate(-647.955 -283.13)" fill="rgba(0,0,0,0)" stroke="#2a1e17" stroke-linecap="round" stroke-linejoin="round" stroke-width="1"/>
      <path id="Path_93" data-name="Path 93" d="M673.94,347.773s5.7,4.074,9.267,5.375" transform="translate(-647.955 -283.13)" fill="rgba(0,0,0,0)" stroke="#2a1e17" stroke-linecap="round" stroke-linejoin="round" stroke-width="1"/>
      <path id="Path_94" data-name="Path 94" d="M716.914,292.753s12.75,4.17,14.277,20.993" transform="translate(-647.955 -283.13)" fill="rgba(0,0,0,0)" stroke="#2a1e17" stroke-linecap="round" stroke-linejoin="round" stroke-width="1"/>
      <path id="Path_95" data-name="Path 95" d="M723.322,313.543s5.87,9.083-4.051,18.167" transform="translate(-647.955 -283.13)" fill="rgba(0,0,0,0)" stroke="#2a1e17" stroke-linecap="round" stroke-linejoin="round" stroke-width="1"/>
      <path id="Path_96" data-name="Path 96" d="M649.137,377.2s32.015,27.419,55.249-4.643" transform="translate(-647.955 -283.13)" fill="rgba(0,0,0,0)" stroke="#2a1e17" stroke-linecap="round" stroke-linejoin="round" stroke-width="1"/>
    </g>
    <line id="Line_23" data-name="Line 23" x2="7.463" transform="translate(414.587 273.381)" fill="none" stroke="#ff6d66" stroke-linecap="round" stroke-linejoin="round" stroke-width="1"/>
    <line id="Line_24" data-name="Line 24" x2="7.463" transform="translate(822.519 183.016)" fill="none" stroke="#ff6d66" stroke-linecap="round" stroke-linejoin="round" stroke-width="1"/>
    <line id="Line_25" data-name="Line 25" x2="7.463" transform="translate(626.138 131.809)" fill="none" stroke="#fad8b0" stroke-miterlimit="10" stroke-width="1"/>
    <line id="Line_26" data-name="Line 26" x2="7.346" y2="1.32" transform="translate(836.502 222.139)" fill="none" stroke="#fad8b0" stroke-miterlimit="10" stroke-width="1"/>
    <line id="Line_27" data-name="Line 27" x2="7.463" transform="translate(548.84 409.047)" fill="none" stroke="#a0c6f4" stroke-linecap="round" stroke-linejoin="round" stroke-width="1"/>
    <circle id="Ellipse_18" data-name="Ellipse 18" cx="2.473" cy="2.473" r="2.473" transform="translate(849.887 313.197)" fill="#91ba83" stroke="rgba(0,0,0,0)" stroke-width="1"/>
    <circle id="Ellipse_19" data-name="Ellipse 19" cx="2.473" cy="2.473" r="2.473" transform="translate(394.21 194.13)" fill="#91ba83" stroke="rgba(0,0,0,0)" stroke-width="1"/>
    <path id="Path_106" data-name="Path 106" d="M233.828,429.005" transform="translate(0 1.374)" fill="rgba(0,0,0,0)" stroke="#2a1e17" stroke-linecap="round" stroke-linejoin="round" stroke-width="1"/>
    <circle id="Ellipse_20" data-name="Ellipse 20" cx="2.623" cy="2.623" r="2.623" transform="translate(875.155 472.901)" fill="#2a1e17" stroke="rgba(0,0,0,0)" stroke-width="1"/>
    <circle id="Ellipse_21" data-name="Ellipse 21" cx="2.623" cy="2.623" r="2.623" transform="translate(1024.58 384.007)" fill="#2a1e17" stroke="rgba(0,0,0,0)" stroke-width="1"/>
    <path id="Path_107" data-name="Path 107" d="M1042.909,384.657s20.591-61.311-71.466-25.14C875.735,397.122,837.511,475.974,853.191,482.2s39.034-7.817,39.034-7.817" transform="translate(-15.115 1.374)" fill="rgba(0,0,0,0)" stroke="#2a1e17" stroke-linecap="round" stroke-linejoin="round" stroke-width="1"/>
  </g>
</svg>
